<?xml version="1.0" standalone="no"?>
<!DOCTYPE svg PUBLIC "-//W3C//DTD SVG 20010904//EN"
 "http://www.w3.org/TR/2001/REC-SVG-20010904/DTD/svg10.dtd">
<svg version="1.0" xmlns="http://www.w3.org/2000/svg"
 width="550.000000pt" height="550.000000pt" viewBox="0 0 550.000000 550.000000"
 preserveAspectRatio="xMidYMid meet">
<metadata>
Created by potrace 1.14, written by Peter Selinger 2001-2017
</metadata>
<g transform="translate(0.000000,550.000000) scale(0.100000,-0.100000)"
fill="#000000" stroke="none">
<path d="M0 2750 l0 -2750 2750 0 2750 0 0 2750 0 2750 -2750 0 -2750 0 0
-2750z m2822 2575 c315 -47 661 -291 959 -675 92 -119 218 -306 242 -360 11
-25 30 -58 42 -75 12 -16 30 -50 40 -75 11 -25 27 -56 37 -69 10 -13 18 -29
18 -35 0 -6 13 -38 29 -71 43 -87 78 -166 85 -195 4 -14 11 -34 16 -45 5 -11
23 -60 40 -110 97 -284 164 -599 191 -888 15 -166 6 -555 -16 -696 -62 -391
-181 -728 -349 -986 -29 -44 -65 -99 -79 -122 -15 -24 -38 -55 -51 -70 -14
-16 -51 -59 -84 -98 -32 -38 -76 -85 -98 -103 -21 -19 -59 -52 -84 -74 -24
-22 -62 -52 -85 -67 -22 -14 -49 -34 -59 -43 -11 -10 -29 -21 -40 -24 -12 -4
-34 -17 -51 -29 -39 -29 -188 -104 -286 -143 -72 -29 -150 -50 -244 -68 -22
-4 -47 -9 -55 -11 -113 -22 -340 -22 -460 1 -14 3 -52 10 -85 15 -98 15 -311
93 -404 146 -222 129 -307 192 -440 325 -80 80 -281 326 -281 344 0 3 -13 24
-29 48 -87 130 -244 522 -280 699 -5 24 -18 87 -29 139 -38 176 -44 257 -44
545 0 315 9 400 76 725 66 321 248 809 387 1040 152 254 256 402 382 550 255
297 573 508 827 550 41 6 82 13 90 15 35 7 81 4 172 -10z"/>
</g>
</svg>
